<svg clip-rule="evenodd" fill-rule="evenodd" stroke-linejoin="round" stroke-miterlimit="2" viewBox="0 0 64 64" xmlns="http://www.w3.org/2000/svg" xmlns:serif="http://www.serif.com/"><g transform="translate(-240 -320)"><g id="deviantart-deviant-art-apps-platform" transform="translate(240 320)"><path d="m0 0h64v64h-64z" fill="none"/><g transform="translate(-239.5 -320)"><path d="m271.703 335c.183 0 .352-.1.439-.261.816-1.496 4.9-8.982 5.716-10.478.087-.161.256-.261.439-.261h9.203c.133 0 .26.053.354.146.093.094.146.221.146.354v11.377c0 .081-.02.16-.057.232-.705 1.349-7.76 14.846-9.492 18.159-.081.155-.076.341.015.491s.253.241.428.241h9.606c.276 0 .5.224.5.5v13c0 .276-.224.5-.5.5-2.682 0-15.324 0-17.447 0-.186 0-.357.103-.443.268-.791 1.512-4.679 8.952-5.47 10.464-.086.165-.257.268-.443.268-1.517 0-8.292 0-10.197 0-.276 0-.5-.224-.5-.5 0-2.113 0-10.255 0-11.372 0-.084.021-.166.061-.24.745-1.366 8.086-14.824 9.899-18.149.085-.154.081-.342-.009-.494s-.253-.245-.43-.245c-1.905 0-6.498 0-8.021 0-.276 0-.5-.224-.5-.5 0-2.178 0-10.822 0-13 0-.276.224-.5.5-.5z" fill="#95d6a4"/></g><g transform="translate(-240 -320)"><path d="m259 335v11.5c0 .276.224.5.5.5h8.021c.177 0 .34.093.43.245s.094.34.009.494c-1.813 3.325-9.154 16.783-9.899 18.149-.04.074-.061.156-.061.24v11.372c0 .276.224.5.5.5h8.045l-.905 1.732c-.086.165-.257.268-.443.268-1.517 0-8.292 0-10.197 0-.276 0-.5-.224-.5-.5 0-2.113 0-10.255 0-11.372 0-.084.021-.166.061-.24.745-1.366 8.086-14.824 9.899-18.149.085-.154.081-.342-.009-.494s-.253-.245-.43-.245c-1.905 0-6.498 0-8.021 0-.276 0-.5-.224-.5-.5 0-2.178 0-10.822 0-13 0-.276.224-.5.5-.5zm30.5 32v1.5c0 .276-.224.5-.5.5h-15.295l.905-1.732c.086-.165.257-.268.443-.268zm-8.591-43-4.767 8.739c-.087.161-.256.261-.439.261h-2.112l4.767-8.739c.087-.161.256-.261.439-.261z" fill="#78c2a4"/></g><g transform="translate(-239.5 -320)"><path d="m271.703 334.5c.816-1.496 4.9-8.982 5.716-10.479.175-.321.512-.521.878-.521h9.203c.265 0 .52.105.707.293.188.187.293.442.293.707v11.377c0 .162-.039.32-.114.463-.705 1.35-7.76 14.847-9.492 18.16h9.606c.552 0 1 .448 1 1v13c0 .552-.448 1-1 1h-17.447l-5.47 10.463c-.172.33-.514.537-.886.537-1.517 0-8.292 0-10.197 0-.552 0-1-.448-1-1 0-2.113 0-10.255 0-11.372 0-.168.042-.332.122-.479.745-1.366 8.086-14.825 9.899-18.149h-8.021c-.552 0-1-.448-1-1 0-2.178 0-10.822 0-13 0-.552.448-1 1-1zm15.797-10h-9.203l-5.716 10.479c-.175.321-.512.521-.878.521h-16.203v13h8.021c.353 0 .68.186.86.49.18.303.187.679.018.989-1.813 3.324-9.154 16.783-9.899 18.148v11.373h10.197l5.47-10.463c.172-.33.514-.537.886-.537h17.447v-13h-9.606c-.35 0-.674-.183-.856-.482-.181-.299-.193-.671-.03-.981 1.732-3.314 8.787-16.811 9.492-18.16z"/></g></g></g></svg>