<svg id="Capa_1" enable-background="new 0 0 512 512" height="512" viewBox="0 0 512 512" width="512" xmlns="http://www.w3.org/2000/svg"><g><g><path d="m376.009 7.984h-80.005v336.02c0 44.185-35.82 80.005-80.005 80.005s-80.005-35.82-80.005-80.005c.001-44.185 35.82-80.004 80.006-80.004v-80.005c-88.371 0-160.01 71.639-160.01 160.01 0 88.37 71.639 160.009 160.01 160.009s160.009-71.639 160.009-160.009v-197.592c23.554 13.645 50.825 21.581 80.005 21.581v-80.005c-44.185 0-80.005-35.819-80.005-80.005z" fill="#cddceb"/></g><g><path d="m376.009 7.984h-56.003v8c0 8.837 7.164 16.001 16.001 16.001h18.794c9.036 38.112 39.1 68.176 77.212 77.212v32.627c-15.115-2.744-29.761-8.061-43.254-15.768-4.615-2.636-9.896-4.194-15.174-3.573-12.87 1.513-21.576 12.106-21.576 23.931v173.588c0 13.256 10.746 24.001 24.001 24.001v-197.59c23.554 13.645 50.825 21.581 80.005 21.581v-80.005c-44.186 0-80.006-35.819-80.006-80.005z" fill="#fff"/></g><g fill="#00abd5"><path d="m304.005 0c-8.814 0-15.984 7.17-15.984 15.985v325.279c0 39.395-29.522 72.164-67.211 74.604-20.179 1.312-39.374-5.55-54.051-19.307-.518-.485-1.008-.99-1.509-1.487l-11.907 10.693c.816.829 1.644 1.647 2.495 2.445 17.933 16.808 41.376 25.19 66.004 23.591 46.064-2.982 82.148-42.751 82.148-90.54l.016-325.295h48.003v-15.968z"/><path d="m368.025 304.002v40.003c0 42.121-16.833 81.292-47.4 110.296-30.545 28.983-70.61 43.726-112.83 41.511-34.768-1.824-70.388-18.549-97.724-45.886-27.336-27.338-44.06-62.958-45.882-97.727-2.136-40.752 11.674-79.81 38.885-109.979 27.219-30.177 64.477-47.943 104.932-50.035.005.013.009.027.009.043v15.768h15.969v-15.768c0-4.389-1.826-8.642-5.011-11.67-3.168-3.012-7.295-4.57-11.615-4.329-44.781 2.27-86.027 21.908-116.14 55.295-30.072 33.341-45.333 76.494-42.974 121.511 2.026 38.659 20.446 78.089 50.537 108.181 30.09 30.092 69.521 48.514 108.179 50.543 3.063.161 6.111.241 9.151.241 43.247-.002 83.97-16.189 115.508-46.116 33.776-32.05 52.377-75.334 52.377-121.88v-40.003h-15.971z"/><path d="m368.44 16.007h.01z"/></g><g><path d="m216.058 511.998c-42.372 0-82.954-16.151-114.504-45.624-32.115-29.999-51.048-70.243-53.31-113.317-1.394-26.533 3.229-52.188 13.742-76.25 1.766-4.04 6.475-5.882 10.513-4.12 4.041 1.765 5.885 6.473 4.12 10.514-9.509 21.766-13.691 44.987-12.429 69.018 4.187 79.695 72.128 143.81 151.893 143.81.653 0 1.298-.004 1.952-.013 40.394-.53 78.227-16.722 106.531-45.594 3.087-3.147 8.141-3.199 11.291-.112 3.149 3.087 3.199 8.142.112 11.291-31.277 31.903-73.086 49.796-117.725 50.382-.726.01-1.46.015-2.186.015z" fill="#283246"/></g><g><path d="m376.009 311.986c-4.409 0-7.984-3.575-7.984-7.984v-157.589c0-2.855 1.524-5.492 3.997-6.918 2.474-1.424 5.521-1.422 7.99.01 21.055 12.197 43.923 19.024 67.977 20.293l.04-64.149c-20.824-1.704-40.116-10.266-54.345-24.123-14.863-14.473-23.624-33.678-25.349-55.557-.003 0-.006 0-.009 0h-16.32c-4.409 0-7.984-3.575-7.984-7.984s3.575-7.984 7.984-7.984h16.32c8.305 0 15.293 6.356 15.909 14.471 2.745 36.159 28.978 62.392 65.279 65.277 8.122.646 14.483 7.628 14.483 15.894v64.131c0 4.39-1.826 8.642-5.01 11.666-3.164 3.007-7.293 4.555-11.605 4.318-22.181-1.139-43.445-6.547-63.39-16.1v144.345c.002 4.408-3.573 7.983-7.983 7.983z" fill="#c37678"/></g><g><path d="m159.994 409.121c-2.017 0-4.035-.759-5.589-2.283-17.02-16.687-26.394-39.002-26.394-62.834 0-22.153 8.261-43.32 23.262-59.603 14.846-16.116 34.979-26.062 56.716-28.026l.026-48.379c0-4.409 3.575-7.984 7.984-7.984 4.41 0 7.984 3.575 7.984 7.984v48.384c0 8.205-6.294 15.179-14.33 15.879-17.867 1.558-34.43 9.711-46.637 22.962-12.276 13.326-19.038 30.651-19.038 48.783 0 19.507 7.673 37.772 21.605 51.431 3.149 3.088 3.199 8.142.112 11.291-1.563 1.595-3.631 2.395-5.701 2.395z" fill="#c37678"/></g></g></svg>